<?xml version="1.0" encoding="utf-8"?>
<!-- Svg Vector Icons : http://www.onlinewebfonts.com/icon -->
<!DOCTYPE svg PUBLIC "-//W3C//DTD SVG 1.1//EN" "http://www.w3.org/Graphics/SVG/1.1/DTD/svg11.dtd">
<svg version="1.1" xmlns="http://www.w3.org/2000/svg" xmlns:xlink="http://www.w3.org/1999/xlink" x="0px" y="0px" viewBox="0 0 1000 1000" enable-background="new 0 0 1000 1000" xml:space="preserve">
<metadata> Svg Vector Icons : http://www.onlinewebfonts.com/icon </metadata>
<g><path d="M693.1,10l3.3,143.1c1.1,46.7,22.9,88.2,56.5,115.7c-32.4,1.4-61.1,8.4-85.9,20.9c-28,14.1-51.2,32.4-69.8,54.8C578.7,367,565,392.1,556,419.8c-8.9,27.8-13.4,55.3-13.4,82.6c0,35.2,4.6,67.1,13.8,95.8c9.2,28.7,23.1,53.3,41.9,73.9c18.8,20.6,42.8,36.4,72.1,47.5c29.3,11.1,64.1,16.7,104.3,16.7c15.7,0,29.4-0.2,41.2-0.7c11.9-0.5,22.8-1.3,32.9-2.4c10.1-1.2,19.8-2.4,29.2-3.8c9.4-1.4,19.5-3,30.2-4.9c10.3-1.9,16.5-4.2,18.8-6.9c2.2-2.8,3.4-6.2,3.4-10.4V586.4c0-9.7,2.8-16.7,8.4-20.8c5.6-4.2,15.5-7.2,29.9-9c2.2-0.9,4.1-2.4,5.7-4.5c1.6-2.1,2.3-5.2,2.3-9.4c0-1.4,0-3.2,0-5.6s-0.4-4.6-1.3-6.9c-5.4,0.5-12,0.9-19.8,1.4c-7.8,0.5-15.9,0.8-24.1,1c-8.3,0.2-16.3,0.5-24.1,0.7c-7.8,0.2-14.6,0.3-20.5,0.3c-5.8,0-12.8-0.1-20.8-0.3c-8-0.2-16.4-0.5-25.2-0.7c-8.7-0.2-17.2-0.6-25.5-1c-8.3-0.5-15.8-0.9-22.5-1.4c-0.4,1.4-0.8,3.5-1,6.3c-0.2,2.8-0.3,4.9-0.3,6.2c0,2.8,0.7,5.7,2,8.7c1.3,3,3.8,5,7.4,5.9c17,2.3,28.8,5.9,35.6,10.8c6.7,4.9,10.1,13.5,10.1,26V694c-8,2.3-15.8,3.9-23.1,4.9c-7.4,0.9-15.8,1.4-25.2,1.4c-26.4,0-49.8-5.2-70.1-15.6c-20.3-10.4-37.5-25-51.3-43.7c-13.9-18.7-24.4-41.1-31.5-67c-7.2-25.9-10.7-54.4-10.7-85.4c0-28.2,3.2-53.6,9.7-76c6.5-22.4,15.9-41.6,28.2-57.6c12.3-16,27.7-28.2,46.3-36.8c18.6-8.6,39.9-12.8,64.1-12.8c31.7,0,58.4,5.9,79.8,17.7c21.5,11.8,36.9,33.7,46.3,65.6c0.9,3.7,2.6,6.1,5,7.3c2.5,1.2,5.5,1.7,9.1,1.7c1.8,0,4.2-0.3,7.4-1c3.1-0.7,5.8-1.3,8.1-1.7c-4.9-18.5-8.7-37.5-11.4-56.9c-1.7-12.2-3-23.1-4-32.6l67.1,1.6V745c0,135.2-109.8,245-245,245H255C119.8,990,10,880.2,10,745V255C10,119.8,119.8,10,255,10L693.1,10L693.1,10z M102.6,276.9c-6.3,0-12.5-0.2-18.8-0.7c-6.3-0.5-13.1-0.8-20.5-1c-7.4-0.2-15.8-0.8-25.2-1.7c-0.9,2.3-1.3,4.6-1.3,6.9c0,2.3,0,4.2,0,5.6c0,3.7,0.4,6.6,1.3,8.7c0.9,2.1,3.1,3.6,6.7,4.5c15.6,2.8,26.7,6.1,33.2,10.1c6.5,3.9,9.7,10.5,9.7,19.8v347.7c0,9.7-3.9,16.5-11.7,20.5c-7.8,3.9-18.2,7.1-31.2,9.4c-2.2,0.5-4.1,1.5-5.7,3.1c-1.6,1.6-2.3,5-2.3,10.1c0,1.4,0,3.2,0,5.6c0,2.3,0.4,4.4,1.3,6.2c13.9-0.9,28.5-1.7,43.9-2.4c15.4-0.7,29-1,40.6-1h137.5c39.8,0,74.2-6.6,103.3-19.8c29.1-13.2,53-30.5,71.8-52.1c18.8-21.5,32.6-45.7,41.6-72.5c8.9-26.8,13.4-53.9,13.4-81.2c0-31-5-60.1-15.1-87.4c-10.1-27.3-24.8-51.1-44.3-71.5c-19.5-20.4-43.6-36.6-72.4-48.6c-28.8-12-62.3-18-100.3-18L102.6,276.9L102.6,276.9z M213.9,311.6c29.5,0,55.8,3.8,78.8,11.5c23,7.6,42.3,19.7,57.7,36.1c15.4,16.4,27.2,37.6,35.2,63.5c8,25.9,12.1,56.9,12.1,93c0,54.6-13.7,97.9-41.2,129.8c-27.5,31.9-70.3,47.9-128.5,47.9c-12.1,0-21.7-0.5-28.8-1.4c-7.2-0.9-12.7-2.3-16.8-4.2c-4-1.9-6.7-4.4-8.1-7.6c-1.3-3.2-2-7.2-2-11.8V311.6H213.9L213.9,311.6z M693.1,10H745c3.4,0,6.7,0.1,10.1,0.2L990,10l-0.2,234.9c0.1,3.3,0.2,6.7,0.2,10.1v51.9L693.1,10L693.1,10z M828.3,264.2c-47-3-86.4-42.4-89.5-89.5c-2.6-41.1-5.3-81.8-5.3-81.8L910,269.5C910,269.5,869.3,266.9,828.3,264.2L828.3,264.2z"/></g>
</svg>